<svg xmlns="http://www.w3.org/2000/svg" width="18" height="18" viewBox="0 0 24 24" fill="currentColor" aria-hidden="true">
  <path d="M16.365 1.43c0 1.14-.46 2.237-1.19 3.033-.77.84-2.03 1.492-3.196 1.407-.14-1.09.5-2.245 1.22-3.01.77-.82 2.13-1.408 3.166-1.43zM20.8 17.03c-.57 1.31-.84 1.89-1.58 3.06-1.02 1.6-2.46 3.6-4.25 3.61-1.6.02-2.02-1.06-4.2-1.05-2.18.01-2.65 1.06-4.26 1.04-1.79-.02-3.16-1.82-4.18-3.41C.8 17.91-.6 13.08 1.8 9.69c1.1-1.64 2.85-2.69 4.82-2.72 1.89-.03 3.67 1.11 4.79 1.11 1.12 0 3.33-1.37 5.61-1.17.95.04 3.63.38 5.35 2.86-.14.09-3.19 1.86-3.57 5.26-.24 2.08.72 4.18.99 5z"/>
</svg>
