<svg xmlns="http://www.w3.org/2000/svg" viewBox="0 0 533.5 544.3" width="18" height="18" aria-hidden="true">
  <path fill="#EA4335" d="M533.5 278.4c0-18.6-1.6-37-5-54.8H272v103.8h147.1c-6.3 34-25.1 62.8-53.7 82v68h86.8c50.8-46.8 81.3-115.8 81.3-199z"/>
  <path fill="#34A853" d="M272 544.3c72.9 0 134.1-24.1 178.8-65.2l-86.8-68c-24.1 16.2-55 25.8-92 25.8-70.7 0-130.6-47.7-152.1-111.7h-90v70.4C84.2 486.6 171.5 544.3 272 544.3z"/>
  <path fill="#4A90E2" d="M119.9 325.1c-10.3-30.6-10.3-63.9 0-94.5v-70.4h-90c-38 75.9-38 159.3 0 235.3l90-70.4z"/>
  <path fill="#FBBC05" d="M272 106.1c39.6-.6 77.9 14 106.9 41.6l80.2-80.2C411.8 24.4 343.7-.2 272 0 171.5 0 84.2 57.7 39.9 141.3l90 70.4C141.4 153.7 201.3 106.1 272 106.1z"/>
</svg>
